<mxfile host="Electron" modified="2024-03-28T19:50:53.651Z" agent="Mozilla/5.0 (Macintosh; Intel Mac OS X 10_15_7) AppleWebKit/537.36 (KHTML, like Gecko) draw.io/22.1.2 Chrome/114.0.5735.289 Electron/25.9.4 Safari/537.36" etag="t1YQ5BYbTIsqyRYmnJV_" version="22.1.2" type="device">
  <diagram name="Page-1" id="ptuOgR4Koqc1qUkyCmJx">
    <mxGraphModel dx="2563" dy="1926" grid="1" gridSize="10" guides="1" tooltips="1" connect="1" arrows="1" fold="1" page="1" pageScale="1" pageWidth="827" pageHeight="1169" math="0" shadow="0">
      <root>
        <mxCell id="0" />
        <mxCell id="1" parent="0" />
        <mxCell id="_JWCpH6sBBp4K9ZSyjIy-2" value="" style="rounded=0;whiteSpace=wrap;html=1;strokeWidth=2;fillColor=#d5e8d4;strokeColor=#82b366;direction=south;" vertex="1" parent="1">
          <mxGeometry x="30" y="864" width="280" height="547" as="geometry" />
        </mxCell>
        <mxCell id="8MR5_gY_EwbowUMmGhpm-122" value="" style="rounded=0;whiteSpace=wrap;html=1;strokeWidth=2;fillColor=#dae8fc;strokeColor=#6c8ebf;" parent="1" vertex="1">
          <mxGeometry x="310" y="863" width="1260" height="297" as="geometry" />
        </mxCell>
        <mxCell id="8MR5_gY_EwbowUMmGhpm-123" value="" style="rounded=0;whiteSpace=wrap;html=1;strokeWidth=2;fillColor=#f5f5f5;fontColor=#333333;strokeColor=#666666;" parent="1" vertex="1">
          <mxGeometry x="310" y="83" width="1880" height="780" as="geometry" />
        </mxCell>
        <mxCell id="_JWCpH6sBBp4K9ZSyjIy-1" value="" style="rounded=0;whiteSpace=wrap;html=1;strokeWidth=2;fillColor=#d5e8d4;strokeColor=#82b366;" vertex="1" parent="1">
          <mxGeometry x="310" y="70" width="1880" height="280" as="geometry" />
        </mxCell>
        <mxCell id="8MR5_gY_EwbowUMmGhpm-121" value="" style="rounded=0;whiteSpace=wrap;html=1;strokeWidth=2;fillColor=#E0E0E0;strokeColor=#666666;fontColor=#333333;" parent="1" vertex="1">
          <mxGeometry x="310" y="1160" width="1260" height="253" as="geometry" />
        </mxCell>
        <mxCell id="_JWCpH6sBBp4K9ZSyjIy-9" style="edgeStyle=orthogonalEdgeStyle;rounded=0;orthogonalLoop=1;jettySize=auto;html=1;exitX=0;exitY=0.25;exitDx=0;exitDy=0;entryX=1;entryY=0.5;entryDx=0;entryDy=0;strokeWidth=2;" edge="1" parent="1" source="8MR5_gY_EwbowUMmGhpm-12" target="_JWCpH6sBBp4K9ZSyjIy-3">
          <mxGeometry relative="1" as="geometry">
            <Array as="points">
              <mxPoint x="340" y="938" />
              <mxPoint x="340" y="892" />
            </Array>
          </mxGeometry>
        </mxCell>
        <mxCell id="8MR5_gY_EwbowUMmGhpm-12" value="&lt;p style=&quot;margin:0px;margin-top:4px;text-align:center;&quot;&gt;&lt;i&gt;&amp;lt;&amp;lt;Interface&amp;gt;&amp;gt;&lt;/i&gt;&lt;br&gt;&lt;b&gt;IUserRepository&lt;/b&gt;&lt;/p&gt;&lt;hr size=&quot;1&quot;&gt;&lt;p style=&quot;border-color: var(--border-color); margin: 0px 0px 0px 4px;&quot;&gt;+ Create(User): User&lt;br style=&quot;border-color: var(--border-color);&quot;&gt;+ Update(User): User&lt;/p&gt;&lt;p style=&quot;border-color: var(--border-color); margin: 0px 0px 0px 4px;&quot;&gt;+ GetUserById(id): User&lt;/p&gt;&lt;p style=&quot;border-color: var(--border-color); margin: 0px 0px 0px 4px;&quot;&gt;+ GetUserByCredentials(login, password): User&lt;/p&gt;" style="verticalAlign=top;align=left;overflow=fill;fontSize=12;fontFamily=Helvetica;html=1;whiteSpace=wrap;strokeWidth=2;fillColor=#e1d5e7;strokeColor=#9673a6;" parent="1" vertex="1">
          <mxGeometry x="355" y="903" width="190" height="140" as="geometry" />
        </mxCell>
        <mxCell id="8MR5_gY_EwbowUMmGhpm-19" style="edgeStyle=orthogonalEdgeStyle;rounded=0;orthogonalLoop=1;jettySize=auto;html=1;exitX=0.5;exitY=0;exitDx=0;exitDy=0;entryX=0.5;entryY=1;entryDx=0;entryDy=0;fillColor=#e1d5e7;strokeColor=#9673a6;strokeWidth=2;" parent="1" source="8MR5_gY_EwbowUMmGhpm-13" target="8MR5_gY_EwbowUMmGhpm-12" edge="1">
          <mxGeometry relative="1" as="geometry" />
        </mxCell>
        <mxCell id="8MR5_gY_EwbowUMmGhpm-13" value="&lt;p style=&quot;margin:0px;margin-top:4px;text-align:center;&quot;&gt;&lt;b&gt;UserPostgresRepository&lt;/b&gt;&lt;/p&gt;&lt;hr size=&quot;1&quot;&gt;&lt;p style=&quot;border-color: var(--border-color); margin: 0px 0px 0px 4px;&quot;&gt;+ Create(User): User&lt;br style=&quot;border-color: var(--border-color);&quot;&gt;+ Update(User): User&lt;/p&gt;&lt;p style=&quot;border-color: var(--border-color); margin: 0px 0px 0px 4px;&quot;&gt;+ GetUserById(id): User&lt;/p&gt;&lt;p style=&quot;border-color: var(--border-color); margin: 0px 0px 0px 4px;&quot;&gt;+ GetUserByCredentials(login, password): User&lt;/p&gt;" style="verticalAlign=top;align=left;overflow=fill;fontSize=12;fontFamily=Helvetica;html=1;whiteSpace=wrap;strokeWidth=2;fillColor=#e1d5e7;strokeColor=#9673a6;" parent="1" vertex="1">
          <mxGeometry x="355" y="1183" width="190" height="120" as="geometry" />
        </mxCell>
        <mxCell id="8MR5_gY_EwbowUMmGhpm-92" style="edgeStyle=orthogonalEdgeStyle;rounded=0;orthogonalLoop=1;jettySize=auto;html=1;exitX=0;exitY=0.5;exitDx=0;exitDy=0;entryX=0;entryY=0.25;entryDx=0;entryDy=0;dashed=1;strokeWidth=2;" parent="1" source="8MR5_gY_EwbowUMmGhpm-15" target="8MR5_gY_EwbowUMmGhpm-83" edge="1">
          <mxGeometry relative="1" as="geometry" />
        </mxCell>
        <mxCell id="8MR5_gY_EwbowUMmGhpm-15" value="&lt;p style=&quot;margin:0px;margin-top:4px;text-align:center;&quot;&gt;&lt;i&gt;&amp;lt;&amp;lt;Interface&amp;gt;&amp;gt;&lt;/i&gt;&lt;br&gt;&lt;b&gt;IUserService&lt;/b&gt;&lt;/p&gt;&lt;hr size=&quot;1&quot;&gt;&lt;p style=&quot;margin:0px;margin-left:4px;&quot;&gt;+ Create(User): User&lt;br&gt;+ Update(User): User&lt;/p&gt;&lt;p style=&quot;margin:0px;margin-left:4px;&quot;&gt;+ GetUserById(id): User&lt;/p&gt;&lt;p style=&quot;margin:0px;margin-left:4px;&quot;&gt;+ GetUserByCredentials(login, password): User&lt;/p&gt;" style="verticalAlign=top;align=left;overflow=fill;fontSize=12;fontFamily=Helvetica;html=1;whiteSpace=wrap;strokeWidth=2;fillColor=#ffe6cc;strokeColor=#d79b00;" parent="1" vertex="1">
          <mxGeometry x="350" y="393" width="200" height="130" as="geometry" />
        </mxCell>
        <mxCell id="8MR5_gY_EwbowUMmGhpm-105" style="edgeStyle=orthogonalEdgeStyle;rounded=0;orthogonalLoop=1;jettySize=auto;html=1;exitX=0.5;exitY=0;exitDx=0;exitDy=0;entryX=0.5;entryY=1;entryDx=0;entryDy=0;strokeWidth=2;" parent="1" source="8MR5_gY_EwbowUMmGhpm-17" target="8MR5_gY_EwbowUMmGhpm-15" edge="1">
          <mxGeometry relative="1" as="geometry" />
        </mxCell>
        <mxCell id="8MR5_gY_EwbowUMmGhpm-110" style="edgeStyle=orthogonalEdgeStyle;rounded=0;orthogonalLoop=1;jettySize=auto;html=1;exitX=0.5;exitY=1;exitDx=0;exitDy=0;entryX=0.5;entryY=0;entryDx=0;entryDy=0;fillColor=#d5e8d4;strokeColor=#82b366;strokeWidth=2;endArrow=classic;endFill=1;startArrow=none;startFill=0;" parent="1" source="8MR5_gY_EwbowUMmGhpm-17" target="8MR5_gY_EwbowUMmGhpm-12" edge="1">
          <mxGeometry relative="1" as="geometry" />
        </mxCell>
        <mxCell id="8MR5_gY_EwbowUMmGhpm-17" value="&lt;p style=&quot;margin:0px;margin-top:4px;text-align:center;&quot;&gt;&lt;b&gt;UserService&lt;/b&gt;&lt;/p&gt;&lt;hr size=&quot;1&quot;&gt;&lt;p style=&quot;border-color: var(--border-color); margin: 0px 0px 0px 4px;&quot;&gt;+ Create(User): User&lt;br style=&quot;border-color: var(--border-color);&quot;&gt;+ Update(User): User&lt;/p&gt;&lt;p style=&quot;border-color: var(--border-color); margin: 0px 0px 0px 4px;&quot;&gt;+ GetUserById(id): User&lt;/p&gt;&lt;p style=&quot;border-color: var(--border-color); margin: 0px 0px 0px 4px;&quot;&gt;+ GetUserByCredentials(login, password): User&lt;/p&gt;" style="verticalAlign=top;align=left;overflow=fill;fontSize=12;fontFamily=Helvetica;html=1;whiteSpace=wrap;strokeWidth=2;fillColor=#ffe6cc;strokeColor=#d79b00;" parent="1" vertex="1">
          <mxGeometry x="350" y="613" width="200" height="110" as="geometry" />
        </mxCell>
        <mxCell id="_JWCpH6sBBp4K9ZSyjIy-10" style="edgeStyle=orthogonalEdgeStyle;rounded=0;orthogonalLoop=1;jettySize=auto;html=1;exitX=0;exitY=0.75;exitDx=0;exitDy=0;entryX=1;entryY=0.75;entryDx=0;entryDy=0;strokeWidth=2;" edge="1" parent="1" source="8MR5_gY_EwbowUMmGhpm-41" target="_JWCpH6sBBp4K9ZSyjIy-3">
          <mxGeometry relative="1" as="geometry">
            <Array as="points">
              <mxPoint x="583" y="1070" />
              <mxPoint x="320" y="1070" />
              <mxPoint x="320" y="901" />
            </Array>
          </mxGeometry>
        </mxCell>
        <mxCell id="_JWCpH6sBBp4K9ZSyjIy-12" style="edgeStyle=orthogonalEdgeStyle;rounded=0;orthogonalLoop=1;jettySize=auto;html=1;exitX=0;exitY=0.75;exitDx=0;exitDy=0;entryX=1;entryY=0.5;entryDx=0;entryDy=0;strokeWidth=2;" edge="1" parent="1" source="8MR5_gY_EwbowUMmGhpm-41" target="_JWCpH6sBBp4K9ZSyjIy-4">
          <mxGeometry relative="1" as="geometry">
            <Array as="points">
              <mxPoint x="583" y="1080" />
              <mxPoint x="290" y="1080" />
              <mxPoint x="290" y="948" />
            </Array>
          </mxGeometry>
        </mxCell>
        <mxCell id="_JWCpH6sBBp4K9ZSyjIy-13" style="edgeStyle=orthogonalEdgeStyle;rounded=0;orthogonalLoop=1;jettySize=auto;html=1;exitX=0;exitY=0.75;exitDx=0;exitDy=0;strokeWidth=2;" edge="1" parent="1" source="8MR5_gY_EwbowUMmGhpm-41" target="_JWCpH6sBBp4K9ZSyjIy-5">
          <mxGeometry relative="1" as="geometry">
            <Array as="points">
              <mxPoint x="583" y="1090" />
              <mxPoint x="280" y="1090" />
              <mxPoint x="280" y="1003" />
            </Array>
          </mxGeometry>
        </mxCell>
        <mxCell id="8MR5_gY_EwbowUMmGhpm-41" value="&lt;p style=&quot;margin:0px;margin-top:4px;text-align:center;&quot;&gt;&lt;i&gt;&amp;lt;&amp;lt;Interface&amp;gt;&amp;gt;&lt;/i&gt;&lt;br&gt;&lt;b&gt;ICourseRepository&lt;/b&gt;&lt;/p&gt;&lt;hr size=&quot;1&quot;&gt;&lt;p style=&quot;border-color: var(--border-color); margin: 0px 0px 0px 4px;&quot;&gt;+ Create(Course): Course&lt;br style=&quot;border-color: var(--border-color);&quot;&gt;+ Update(Course): Course&lt;/p&gt;&lt;p style=&quot;border-color: var(--border-color); margin: 0px 0px 0px 4px;&quot;&gt;+ Delete(id):&lt;/p&gt;&lt;p style=&quot;border-color: var(--border-color); margin: 0px 0px 0px 4px;&quot;&gt;+ GetAllCourses(): Course[]&lt;/p&gt;&lt;p style=&quot;border-color: var(--border-color); margin: 0px 0px 0px 4px;&quot;&gt;+ GetFreeCourses(): Course[]&lt;/p&gt;&lt;p style=&quot;border-color: var(--border-color); margin: 0px 0px 0px 4px;&quot;&gt;+ GetCoursesBySchool(schoolId): Course[]&lt;/p&gt;&lt;p style=&quot;border-color: var(--border-color); margin: 0px 0px 0px 4px;&quot;&gt;+ CreateLesson(courseId, Lesson)&lt;/p&gt;&lt;p style=&quot;border-color: var(--border-color); margin: 0px 0px 0px 4px;&quot;&gt;+ GetLessonById(lessonId): Lesson&lt;/p&gt;&lt;p style=&quot;border-color: var(--border-color); margin: 0px 0px 0px 4px;&quot;&gt;+ GetCourseLessons(courseId): Lesson[]&lt;br&gt;&lt;/p&gt;" style="verticalAlign=top;align=left;overflow=fill;fontSize=12;fontFamily=Helvetica;html=1;whiteSpace=wrap;strokeWidth=2;fillColor=#e1d5e7;strokeColor=#9673a6;" parent="1" vertex="1">
          <mxGeometry x="582.5" y="903" width="245" height="200" as="geometry" />
        </mxCell>
        <mxCell id="8MR5_gY_EwbowUMmGhpm-42" style="edgeStyle=orthogonalEdgeStyle;rounded=0;orthogonalLoop=1;jettySize=auto;html=1;exitX=0.5;exitY=0;exitDx=0;exitDy=0;entryX=0.5;entryY=1;entryDx=0;entryDy=0;fillColor=#e1d5e7;strokeColor=#9673a6;strokeWidth=2;" parent="1" source="8MR5_gY_EwbowUMmGhpm-43" target="8MR5_gY_EwbowUMmGhpm-41" edge="1">
          <mxGeometry relative="1" as="geometry" />
        </mxCell>
        <mxCell id="8MR5_gY_EwbowUMmGhpm-43" value="&lt;p style=&quot;margin:0px;margin-top:4px;text-align:center;&quot;&gt;&lt;b&gt;CoursePostgresRepository&lt;/b&gt;&lt;/p&gt;&lt;hr size=&quot;1&quot;&gt;&lt;p style=&quot;border-color: var(--border-color); margin: 0px 0px 0px 4px;&quot;&gt;+ Create(Course): Course&lt;br style=&quot;border-color: var(--border-color);&quot;&gt;+ Update(Course): Course&lt;/p&gt;&lt;p style=&quot;border-color: var(--border-color); margin: 0px 0px 0px 4px;&quot;&gt;+ Delete(id):&lt;/p&gt;&lt;p style=&quot;border-color: var(--border-color); margin: 0px 0px 0px 4px;&quot;&gt;+ GetAllCourses(): Course[]&lt;/p&gt;&lt;p style=&quot;border-color: var(--border-color); margin: 0px 0px 0px 4px;&quot;&gt;+ GetFreeCourses(): Course[]&lt;/p&gt;&lt;p style=&quot;border-color: var(--border-color); margin: 0px 0px 0px 4px;&quot;&gt;+ GetCoursesBySchool(schoolId): Course[]&lt;/p&gt;&lt;p style=&quot;border-color: var(--border-color); margin: 0px 0px 0px 4px;&quot;&gt;+ CreateLesson(courseId, Lesson)&lt;/p&gt;&lt;p style=&quot;border-color: var(--border-color); margin: 0px 0px 0px 4px;&quot;&gt;+ GetLessonById(lessonId): Lesson&lt;/p&gt;&lt;p style=&quot;border-color: var(--border-color); margin: 0px 0px 0px 4px;&quot;&gt;+ GetCourseLessons(courseId): Lesson[]&lt;/p&gt;" style="verticalAlign=top;align=left;overflow=fill;fontSize=12;fontFamily=Helvetica;html=1;whiteSpace=wrap;strokeWidth=2;fillColor=#e1d5e7;strokeColor=#9673a6;" parent="1" vertex="1">
          <mxGeometry x="580" y="1183" width="250" height="180" as="geometry" />
        </mxCell>
        <mxCell id="8MR5_gY_EwbowUMmGhpm-93" style="edgeStyle=orthogonalEdgeStyle;rounded=0;orthogonalLoop=1;jettySize=auto;html=1;exitX=0.25;exitY=0;exitDx=0;exitDy=0;entryX=0.5;entryY=1;entryDx=0;entryDy=0;dashed=1;strokeWidth=2;" parent="1" source="8MR5_gY_EwbowUMmGhpm-44" target="8MR5_gY_EwbowUMmGhpm-85" edge="1">
          <mxGeometry relative="1" as="geometry" />
        </mxCell>
        <mxCell id="8MR5_gY_EwbowUMmGhpm-94" style="edgeStyle=orthogonalEdgeStyle;rounded=0;orthogonalLoop=1;jettySize=auto;html=1;exitX=0.25;exitY=0;exitDx=0;exitDy=0;entryX=0.5;entryY=1;entryDx=0;entryDy=0;dashed=1;strokeWidth=2;" parent="1" source="8MR5_gY_EwbowUMmGhpm-44" target="8MR5_gY_EwbowUMmGhpm-89" edge="1">
          <mxGeometry relative="1" as="geometry" />
        </mxCell>
        <mxCell id="8MR5_gY_EwbowUMmGhpm-95" style="edgeStyle=orthogonalEdgeStyle;rounded=0;orthogonalLoop=1;jettySize=auto;html=1;exitX=0.25;exitY=0;exitDx=0;exitDy=0;entryX=0.5;entryY=1;entryDx=0;entryDy=0;dashed=1;strokeWidth=2;" parent="1" source="8MR5_gY_EwbowUMmGhpm-44" target="8MR5_gY_EwbowUMmGhpm-83" edge="1">
          <mxGeometry relative="1" as="geometry" />
        </mxCell>
        <mxCell id="8MR5_gY_EwbowUMmGhpm-96" style="edgeStyle=orthogonalEdgeStyle;rounded=0;orthogonalLoop=1;jettySize=auto;html=1;exitX=0.25;exitY=0;exitDx=0;exitDy=0;entryX=0.5;entryY=1;entryDx=0;entryDy=0;dashed=1;strokeWidth=2;" parent="1" source="8MR5_gY_EwbowUMmGhpm-44" target="8MR5_gY_EwbowUMmGhpm-87" edge="1">
          <mxGeometry relative="1" as="geometry" />
        </mxCell>
        <mxCell id="8MR5_gY_EwbowUMmGhpm-44" value="&lt;p style=&quot;margin:0px;margin-top:4px;text-align:center;&quot;&gt;&lt;i&gt;&amp;lt;&amp;lt;Interface&amp;gt;&amp;gt;&lt;/i&gt;&lt;br&gt;&lt;b&gt;ICourseService&lt;/b&gt;&lt;/p&gt;&lt;hr size=&quot;1&quot;&gt;&lt;p style=&quot;margin:0px;margin-left:4px;&quot;&gt;+ Create(Course): Course&lt;br&gt;+ Update(Course): Course&lt;/p&gt;&lt;p style=&quot;margin:0px;margin-left:4px;&quot;&gt;+ Delete(id):&lt;/p&gt;&lt;p style=&quot;margin:0px;margin-left:4px;&quot;&gt;+ GetAllCourses(): Course[]&lt;/p&gt;&lt;p style=&quot;margin:0px;margin-left:4px;&quot;&gt;+ GetFreeCourses(): Course[]&lt;/p&gt;&lt;p style=&quot;margin:0px;margin-left:4px;&quot;&gt;+ GetCourseLessons(courseId): Lesson[]&lt;/p&gt;&lt;p style=&quot;margin:0px;margin-left:4px;&quot;&gt;+ BeginCourse(userId, courseId):&amp;nbsp;&lt;/p&gt;&lt;p style=&quot;margin:0px;margin-left:4px;&quot;&gt;+ GetCoursesBySchool(schoolId): Course[]&lt;/p&gt;&lt;p style=&quot;margin:0px;margin-left:4px;&quot;&gt;+ CreateLesson(courseId, Lesson)&lt;/p&gt;" style="verticalAlign=top;align=left;overflow=fill;fontSize=12;fontFamily=Helvetica;html=1;whiteSpace=wrap;strokeWidth=2;fillColor=#ffe6cc;strokeColor=#d79b00;" parent="1" vertex="1">
          <mxGeometry x="585" y="388" width="240" height="185" as="geometry" />
        </mxCell>
        <mxCell id="8MR5_gY_EwbowUMmGhpm-106" style="edgeStyle=orthogonalEdgeStyle;rounded=0;orthogonalLoop=1;jettySize=auto;html=1;exitX=0.5;exitY=0;exitDx=0;exitDy=0;entryX=0.5;entryY=1;entryDx=0;entryDy=0;strokeWidth=2;" parent="1" source="8MR5_gY_EwbowUMmGhpm-47" target="8MR5_gY_EwbowUMmGhpm-44" edge="1">
          <mxGeometry relative="1" as="geometry" />
        </mxCell>
        <mxCell id="8MR5_gY_EwbowUMmGhpm-111" style="edgeStyle=orthogonalEdgeStyle;rounded=0;orthogonalLoop=1;jettySize=auto;html=1;exitX=0.5;exitY=1;exitDx=0;exitDy=0;entryX=0.5;entryY=0;entryDx=0;entryDy=0;strokeWidth=2;endArrow=classic;endFill=1;startArrow=none;startFill=0;" parent="1" source="8MR5_gY_EwbowUMmGhpm-47" target="8MR5_gY_EwbowUMmGhpm-41" edge="1">
          <mxGeometry relative="1" as="geometry" />
        </mxCell>
        <mxCell id="8MR5_gY_EwbowUMmGhpm-115" style="edgeStyle=orthogonalEdgeStyle;rounded=0;orthogonalLoop=1;jettySize=auto;html=1;exitX=0.25;exitY=1;exitDx=0;exitDy=0;entryX=0.5;entryY=0;entryDx=0;entryDy=0;fillColor=#d5e8d4;strokeColor=#82b366;strokeWidth=2;endArrow=classic;endFill=1;startArrow=none;startFill=0;" parent="1" source="8MR5_gY_EwbowUMmGhpm-47" target="8MR5_gY_EwbowUMmGhpm-12" edge="1">
          <mxGeometry relative="1" as="geometry" />
        </mxCell>
        <mxCell id="8MR5_gY_EwbowUMmGhpm-116" style="edgeStyle=orthogonalEdgeStyle;rounded=0;orthogonalLoop=1;jettySize=auto;html=1;exitX=0.75;exitY=1;exitDx=0;exitDy=0;entryX=0.25;entryY=0;entryDx=0;entryDy=0;strokeWidth=2;endArrow=classic;endFill=1;startArrow=none;startFill=0;" parent="1" source="8MR5_gY_EwbowUMmGhpm-47" target="8MR5_gY_EwbowUMmGhpm-50" edge="1">
          <mxGeometry relative="1" as="geometry" />
        </mxCell>
        <mxCell id="8MR5_gY_EwbowUMmGhpm-47" value="&lt;p style=&quot;margin:0px;margin-top:4px;text-align:center;&quot;&gt;&lt;b&gt;CourseService&lt;/b&gt;&lt;/p&gt;&lt;hr size=&quot;1&quot;&gt;&lt;p style=&quot;border-color: var(--border-color); margin: 0px 0px 0px 4px;&quot;&gt;+ Create(Course): Course&lt;br style=&quot;border-color: var(--border-color);&quot;&gt;+ Update(Course): Course&lt;/p&gt;&lt;p style=&quot;border-color: var(--border-color); margin: 0px 0px 0px 4px;&quot;&gt;+ Delete(id):&lt;/p&gt;&lt;p style=&quot;border-color: var(--border-color); margin: 0px 0px 0px 4px;&quot;&gt;+ GetAllCourses(): Course[]&lt;/p&gt;&lt;p style=&quot;border-color: var(--border-color); margin: 0px 0px 0px 4px;&quot;&gt;+ GetFreeCourses(): Course[]&lt;/p&gt;&lt;p style=&quot;border-color: var(--border-color); margin: 0px 0px 0px 4px;&quot;&gt;+ GetCourseLessons(courseId): Lesson[]&lt;/p&gt;&lt;p style=&quot;border-color: var(--border-color); margin: 0px 0px 0px 4px;&quot;&gt;+ BeginCourse(userId, courseId):&amp;nbsp;&lt;/p&gt;&lt;p style=&quot;border-color: var(--border-color); margin: 0px 0px 0px 4px;&quot;&gt;+ GetCoursesBySchool(schoolId): Course[]&lt;/p&gt;&lt;p style=&quot;border-color: var(--border-color); margin: 0px 0px 0px 4px;&quot;&gt;+ CreateLesson(courseId, Lesson)&lt;br&gt;&lt;/p&gt;" style="verticalAlign=top;align=left;overflow=fill;fontSize=12;fontFamily=Helvetica;html=1;whiteSpace=wrap;strokeWidth=2;fillColor=#ffe6cc;strokeColor=#d79b00;" parent="1" vertex="1">
          <mxGeometry x="585" y="613" width="240" height="170" as="geometry" />
        </mxCell>
        <mxCell id="_JWCpH6sBBp4K9ZSyjIy-16" style="edgeStyle=orthogonalEdgeStyle;rounded=0;orthogonalLoop=1;jettySize=auto;html=1;exitX=0.25;exitY=1;exitDx=0;exitDy=0;entryX=1;entryY=0.75;entryDx=0;entryDy=0;strokeWidth=2;" edge="1" parent="1" source="8MR5_gY_EwbowUMmGhpm-50" target="_JWCpH6sBBp4K9ZSyjIy-6">
          <mxGeometry relative="1" as="geometry">
            <Array as="points">
              <mxPoint x="887" y="1130" />
              <mxPoint x="270" y="1130" />
              <mxPoint x="270" y="1068" />
            </Array>
          </mxGeometry>
        </mxCell>
        <mxCell id="8MR5_gY_EwbowUMmGhpm-50" value="&lt;p style=&quot;margin:0px;margin-top:4px;text-align:center;&quot;&gt;&lt;i&gt;&amp;lt;&amp;lt;Interface&amp;gt;&amp;gt;&lt;/i&gt;&lt;br&gt;&lt;b&gt;ISchoolRepository&lt;/b&gt;&lt;/p&gt;&lt;hr size=&quot;1&quot;&gt;&lt;p style=&quot;border-color: var(--border-color); margin: 0px 0px 0px 4px;&quot;&gt;+ Create(School): School&lt;/p&gt;&lt;p style=&quot;border-color: var(--border-color); margin: 0px 0px 0px 4px;&quot;&gt;+ Update(School): School&lt;/p&gt;&lt;p style=&quot;border-color: var(--border-color); margin: 0px 0px 0px 4px;&quot;&gt;+ AddPaymentInfo()&lt;/p&gt;&lt;p style=&quot;border-color: var(--border-color); margin: 0px 0px 0px 4px;&quot;&gt;+ AddTeacher(schoolId, User)&lt;/p&gt;&lt;p style=&quot;border-color: var(--border-color); margin: 0px 0px 0px 4px;&quot;&gt;+ DeleteTeacher(schoolId, userId)&lt;/p&gt;&lt;p style=&quot;border-color: var(--border-color); margin: 0px 0px 0px 4px;&quot;&gt;+ GetAllTeachers(): User[]&lt;/p&gt;" style="verticalAlign=top;align=left;overflow=fill;fontSize=12;fontFamily=Helvetica;html=1;whiteSpace=wrap;strokeWidth=2;fillColor=#e1d5e7;strokeColor=#9673a6;" parent="1" vertex="1">
          <mxGeometry x="840" y="903" width="190" height="140" as="geometry" />
        </mxCell>
        <mxCell id="8MR5_gY_EwbowUMmGhpm-51" style="edgeStyle=orthogonalEdgeStyle;rounded=0;orthogonalLoop=1;jettySize=auto;html=1;exitX=0.5;exitY=0;exitDx=0;exitDy=0;entryX=0.5;entryY=1;entryDx=0;entryDy=0;fillColor=#e1d5e7;strokeColor=#9673a6;strokeWidth=2;" parent="1" source="8MR5_gY_EwbowUMmGhpm-52" target="8MR5_gY_EwbowUMmGhpm-50" edge="1">
          <mxGeometry relative="1" as="geometry" />
        </mxCell>
        <mxCell id="8MR5_gY_EwbowUMmGhpm-52" value="&lt;p style=&quot;margin:0px;margin-top:4px;text-align:center;&quot;&gt;&lt;b&gt;SchoolPostgresRepository&lt;/b&gt;&lt;/p&gt;&lt;hr size=&quot;1&quot;&gt;&lt;p style=&quot;border-color: var(--border-color); margin: 0px 0px 0px 4px;&quot;&gt;+ Create(School): School&lt;/p&gt;&lt;p style=&quot;border-color: var(--border-color); margin: 0px 0px 0px 4px;&quot;&gt;+ Update(School): School&lt;/p&gt;&lt;p style=&quot;border-color: var(--border-color); margin: 0px 0px 0px 4px;&quot;&gt;+ AddPaymentInfo()&lt;/p&gt;&lt;p style=&quot;border-color: var(--border-color); margin: 0px 0px 0px 4px;&quot;&gt;+ AddTeacher(schoolId, User)&lt;/p&gt;&lt;p style=&quot;border-color: var(--border-color); margin: 0px 0px 0px 4px;&quot;&gt;+ DeleteTeacher(schoolId, userId)&lt;/p&gt;&lt;p style=&quot;border-color: var(--border-color); margin: 0px 0px 0px 4px;&quot;&gt;+ GetAllTeachers(): User[]&lt;/p&gt;" style="verticalAlign=top;align=left;overflow=fill;fontSize=12;fontFamily=Helvetica;html=1;whiteSpace=wrap;strokeWidth=2;fillColor=#e1d5e7;strokeColor=#9673a6;" parent="1" vertex="1">
          <mxGeometry x="840" y="1183" width="190" height="120" as="geometry" />
        </mxCell>
        <mxCell id="8MR5_gY_EwbowUMmGhpm-97" style="edgeStyle=orthogonalEdgeStyle;rounded=0;orthogonalLoop=1;jettySize=auto;html=1;exitX=0.75;exitY=0;exitDx=0;exitDy=0;entryX=0.5;entryY=0;entryDx=0;entryDy=0;dashed=1;strokeWidth=2;" parent="1" source="8MR5_gY_EwbowUMmGhpm-53" target="8MR5_gY_EwbowUMmGhpm-83" edge="1">
          <mxGeometry relative="1" as="geometry">
            <mxPoint x="1050" y="143" as="targetPoint" />
            <Array as="points">
              <mxPoint x="982" y="363" />
              <mxPoint x="1050" y="363" />
              <mxPoint x="1050" y="113" />
              <mxPoint x="440" y="113" />
            </Array>
          </mxGeometry>
        </mxCell>
        <mxCell id="8MR5_gY_EwbowUMmGhpm-53" value="&lt;p style=&quot;margin:0px;margin-top:4px;text-align:center;&quot;&gt;&lt;i&gt;&amp;lt;&amp;lt;Interface&amp;gt;&amp;gt;&lt;/i&gt;&lt;br&gt;&lt;b&gt;ISchoolService&lt;/b&gt;&lt;/p&gt;&lt;hr size=&quot;1&quot;&gt;&lt;p style=&quot;margin:0px;margin-left:4px;&quot;&gt;+ Create(School): School&lt;/p&gt;&lt;p style=&quot;margin:0px;margin-left:4px;&quot;&gt;+ Update(School): School&lt;/p&gt;&lt;p style=&quot;margin:0px;margin-left:4px;&quot;&gt;+ AddPaymentInfo()&lt;/p&gt;&lt;p style=&quot;margin:0px;margin-left:4px;&quot;&gt;+ AddTeacher(schoolId, User)&lt;/p&gt;&lt;p style=&quot;margin:0px;margin-left:4px;&quot;&gt;+ DeleteTeacher(schoolId, userId)&lt;/p&gt;&lt;p style=&quot;margin:0px;margin-left:4px;&quot;&gt;+ GetAllTeachers(): User[]&lt;/p&gt;" style="verticalAlign=top;align=left;overflow=fill;fontSize=12;fontFamily=Helvetica;html=1;whiteSpace=wrap;strokeWidth=2;fillColor=#ffe6cc;strokeColor=#d79b00;" parent="1" vertex="1">
          <mxGeometry x="840" y="388" width="190" height="140" as="geometry" />
        </mxCell>
        <mxCell id="8MR5_gY_EwbowUMmGhpm-107" style="edgeStyle=orthogonalEdgeStyle;rounded=0;orthogonalLoop=1;jettySize=auto;html=1;exitX=0.5;exitY=0;exitDx=0;exitDy=0;entryX=0.5;entryY=1;entryDx=0;entryDy=0;strokeWidth=2;" parent="1" source="8MR5_gY_EwbowUMmGhpm-56" target="8MR5_gY_EwbowUMmGhpm-53" edge="1">
          <mxGeometry relative="1" as="geometry" />
        </mxCell>
        <mxCell id="8MR5_gY_EwbowUMmGhpm-112" style="edgeStyle=orthogonalEdgeStyle;rounded=0;orthogonalLoop=1;jettySize=auto;html=1;exitX=0.5;exitY=1;exitDx=0;exitDy=0;entryX=0.5;entryY=0;entryDx=0;entryDy=0;strokeWidth=2;endArrow=classic;endFill=1;startArrow=none;startFill=0;" parent="1" source="8MR5_gY_EwbowUMmGhpm-56" target="8MR5_gY_EwbowUMmGhpm-50" edge="1">
          <mxGeometry relative="1" as="geometry" />
        </mxCell>
        <mxCell id="8MR5_gY_EwbowUMmGhpm-117" style="edgeStyle=orthogonalEdgeStyle;rounded=0;orthogonalLoop=1;jettySize=auto;html=1;exitX=0.25;exitY=1;exitDx=0;exitDy=0;entryX=0.75;entryY=0;entryDx=0;entryDy=0;fillColor=#d5e8d4;strokeColor=#82b366;strokeWidth=2;endArrow=classic;endFill=1;startArrow=none;startFill=0;" parent="1" source="8MR5_gY_EwbowUMmGhpm-56" target="8MR5_gY_EwbowUMmGhpm-12" edge="1">
          <mxGeometry relative="1" as="geometry">
            <Array as="points">
              <mxPoint x="887" y="818" />
              <mxPoint x="497" y="818" />
            </Array>
          </mxGeometry>
        </mxCell>
        <mxCell id="8MR5_gY_EwbowUMmGhpm-56" value="&lt;p style=&quot;margin:0px;margin-top:4px;text-align:center;&quot;&gt;&lt;b&gt;SchoolService&lt;/b&gt;&lt;/p&gt;&lt;hr size=&quot;1&quot;&gt;&lt;p style=&quot;border-color: var(--border-color); margin: 0px 0px 0px 4px;&quot;&gt;+ Create(School): School&lt;/p&gt;&lt;p style=&quot;border-color: var(--border-color); margin: 0px 0px 0px 4px;&quot;&gt;+ Update(School): School&lt;/p&gt;&lt;p style=&quot;border-color: var(--border-color); margin: 0px 0px 0px 4px;&quot;&gt;+ AddPaymentInfo()&lt;/p&gt;&lt;p style=&quot;border-color: var(--border-color); margin: 0px 0px 0px 4px;&quot;&gt;+ AddTeacher(schoolId, User)&lt;/p&gt;&lt;p style=&quot;border-color: var(--border-color); margin: 0px 0px 0px 4px;&quot;&gt;+ DeleteTeacher(schoolId, userId)&lt;/p&gt;&lt;p style=&quot;border-color: var(--border-color); margin: 0px 0px 0px 4px;&quot;&gt;+ GetAllTeachers(): User[]&lt;/p&gt;" style="verticalAlign=top;align=left;overflow=fill;fontSize=12;fontFamily=Helvetica;html=1;whiteSpace=wrap;strokeWidth=2;fillColor=#ffe6cc;strokeColor=#d79b00;" parent="1" vertex="1">
          <mxGeometry x="840" y="613" width="190" height="120" as="geometry" />
        </mxCell>
        <mxCell id="_JWCpH6sBBp4K9ZSyjIy-18" style="edgeStyle=orthogonalEdgeStyle;rounded=0;orthogonalLoop=1;jettySize=auto;html=1;exitX=0.25;exitY=1;exitDx=0;exitDy=0;entryX=1;entryY=0.5;entryDx=0;entryDy=0;strokeWidth=2;" edge="1" parent="1" source="8MR5_gY_EwbowUMmGhpm-59" target="_JWCpH6sBBp4K9ZSyjIy-7">
          <mxGeometry relative="1" as="geometry">
            <Array as="points">
              <mxPoint x="1123" y="1116" />
            </Array>
          </mxGeometry>
        </mxCell>
        <mxCell id="8MR5_gY_EwbowUMmGhpm-59" value="&lt;p style=&quot;margin:0px;margin-top:4px;text-align:center;&quot;&gt;&lt;i&gt;&amp;lt;&amp;lt;Interface&amp;gt;&amp;gt;&lt;/i&gt;&lt;br&gt;&lt;b&gt;ICertificateRepository&lt;/b&gt;&lt;/p&gt;&lt;hr size=&quot;1&quot;&gt;&lt;p style=&quot;border-color: var(--border-color); margin: 0px 0px 0px 4px;&quot;&gt;+ GetById(certificateId): Certificate&lt;br style=&quot;border-color: var(--border-color);&quot;&gt;+ Create(userId, courseId): Certificate&lt;/p&gt;&lt;p style=&quot;border-color: var(--border-color); margin: 0px 0px 0px 4px;&quot;&gt;+ GetByCourseStudent(userId, courseId): Certificate&lt;/p&gt;" style="verticalAlign=top;align=left;overflow=fill;fontSize=12;fontFamily=Helvetica;html=1;whiteSpace=wrap;strokeWidth=2;fillColor=#e1d5e7;strokeColor=#9673a6;" parent="1" vertex="1">
          <mxGeometry x="1075" y="903" width="190" height="140" as="geometry" />
        </mxCell>
        <mxCell id="8MR5_gY_EwbowUMmGhpm-60" style="edgeStyle=orthogonalEdgeStyle;rounded=0;orthogonalLoop=1;jettySize=auto;html=1;exitX=0.5;exitY=0;exitDx=0;exitDy=0;entryX=0.5;entryY=1;entryDx=0;entryDy=0;fillColor=#e1d5e7;strokeColor=#9673a6;strokeWidth=2;" parent="1" source="8MR5_gY_EwbowUMmGhpm-61" target="8MR5_gY_EwbowUMmGhpm-59" edge="1">
          <mxGeometry relative="1" as="geometry" />
        </mxCell>
        <mxCell id="8MR5_gY_EwbowUMmGhpm-61" value="&lt;p style=&quot;margin:0px;margin-top:4px;text-align:center;&quot;&gt;&lt;b&gt;CertificatePostgresRepository&lt;/b&gt;&lt;/p&gt;&lt;hr size=&quot;1&quot;&gt;&lt;p style=&quot;border-color: var(--border-color); margin: 0px 0px 0px 4px;&quot;&gt;+ GetById(certificateId): Certificate&lt;br style=&quot;border-color: var(--border-color);&quot;&gt;+ Create(userId, courseId): Certificate&lt;/p&gt;&lt;p style=&quot;border-color: var(--border-color); margin: 0px 0px 0px 4px;&quot;&gt;+ GetByCourseStudent(userId, courseId): Certificate&lt;/p&gt;" style="verticalAlign=top;align=left;overflow=fill;fontSize=12;fontFamily=Helvetica;html=1;whiteSpace=wrap;strokeWidth=2;fillColor=#e1d5e7;strokeColor=#9673a6;" parent="1" vertex="1">
          <mxGeometry x="1075" y="1183" width="190" height="120" as="geometry" />
        </mxCell>
        <mxCell id="8MR5_gY_EwbowUMmGhpm-99" style="edgeStyle=orthogonalEdgeStyle;rounded=0;orthogonalLoop=1;jettySize=auto;html=1;exitX=0.25;exitY=0;exitDx=0;exitDy=0;endArrow=none;endFill=0;dashed=1;strokeWidth=2;" parent="1" source="8MR5_gY_EwbowUMmGhpm-62" edge="1">
          <mxGeometry relative="1" as="geometry">
            <mxPoint x="1050" y="333" as="targetPoint" />
          </mxGeometry>
        </mxCell>
        <mxCell id="8MR5_gY_EwbowUMmGhpm-103" style="edgeStyle=orthogonalEdgeStyle;rounded=0;orthogonalLoop=1;jettySize=auto;html=1;exitX=0.5;exitY=0;exitDx=0;exitDy=0;entryX=0.5;entryY=1;entryDx=0;entryDy=0;dashed=1;strokeWidth=2;" parent="1" source="8MR5_gY_EwbowUMmGhpm-62" target="8MR5_gY_EwbowUMmGhpm-88" edge="1">
          <mxGeometry relative="1" as="geometry" />
        </mxCell>
        <mxCell id="8MR5_gY_EwbowUMmGhpm-104" style="edgeStyle=orthogonalEdgeStyle;rounded=0;orthogonalLoop=1;jettySize=auto;html=1;exitX=0.75;exitY=0;exitDx=0;exitDy=0;entryX=0.5;entryY=0;entryDx=0;entryDy=0;dashed=1;strokeWidth=2;" parent="1" source="8MR5_gY_EwbowUMmGhpm-62" target="8MR5_gY_EwbowUMmGhpm-85" edge="1">
          <mxGeometry relative="1" as="geometry">
            <mxPoint x="1280" y="133.0000000000001" as="targetPoint" />
            <Array as="points">
              <mxPoint x="1225" y="383" />
              <mxPoint x="1270" y="383" />
              <mxPoint x="1270" y="148" />
              <mxPoint x="602" y="148" />
            </Array>
          </mxGeometry>
        </mxCell>
        <mxCell id="8MR5_gY_EwbowUMmGhpm-62" value="&lt;p style=&quot;margin:0px;margin-top:4px;text-align:center;&quot;&gt;&lt;i&gt;&amp;lt;&amp;lt;Interface&amp;gt;&amp;gt;&lt;/i&gt;&lt;br&gt;&lt;b&gt;ICertificateService&lt;/b&gt;&lt;/p&gt;&lt;hr size=&quot;1&quot;&gt;&lt;p style=&quot;margin:0px;margin-left:4px;&quot;&gt;+ GetById(certificateId): Certificate&lt;br&gt;+ Create(userId, courseId): Certificate&lt;/p&gt;&lt;p style=&quot;margin:0px;margin-left:4px;&quot;&gt;+ GetByCourseStudent(userId, courseId): Certificate&lt;/p&gt;" style="verticalAlign=top;align=left;overflow=fill;fontSize=12;fontFamily=Helvetica;html=1;whiteSpace=wrap;strokeWidth=2;fillColor=#ffe6cc;strokeColor=#d79b00;" parent="1" vertex="1">
          <mxGeometry x="1060" y="393" width="220" height="140" as="geometry" />
        </mxCell>
        <mxCell id="8MR5_gY_EwbowUMmGhpm-108" style="edgeStyle=orthogonalEdgeStyle;rounded=0;orthogonalLoop=1;jettySize=auto;html=1;exitX=0.5;exitY=0;exitDx=0;exitDy=0;entryX=0.5;entryY=1;entryDx=0;entryDy=0;strokeWidth=2;" parent="1" source="8MR5_gY_EwbowUMmGhpm-65" target="8MR5_gY_EwbowUMmGhpm-62" edge="1">
          <mxGeometry relative="1" as="geometry" />
        </mxCell>
        <mxCell id="8MR5_gY_EwbowUMmGhpm-113" style="edgeStyle=orthogonalEdgeStyle;rounded=0;orthogonalLoop=1;jettySize=auto;html=1;exitX=0.5;exitY=1;exitDx=0;exitDy=0;entryX=0.5;entryY=0;entryDx=0;entryDy=0;strokeWidth=2;endArrow=classic;endFill=1;startArrow=none;startFill=0;" parent="1" source="8MR5_gY_EwbowUMmGhpm-65" target="8MR5_gY_EwbowUMmGhpm-59" edge="1">
          <mxGeometry relative="1" as="geometry" />
        </mxCell>
        <mxCell id="8MR5_gY_EwbowUMmGhpm-118" style="edgeStyle=orthogonalEdgeStyle;rounded=0;orthogonalLoop=1;jettySize=auto;html=1;exitX=0.25;exitY=1;exitDx=0;exitDy=0;entryX=0.75;entryY=0;entryDx=0;entryDy=0;fillColor=#d5e8d4;strokeColor=#82b366;strokeWidth=2;endArrow=classic;endFill=1;startArrow=none;startFill=0;" parent="1" source="8MR5_gY_EwbowUMmGhpm-65" target="8MR5_gY_EwbowUMmGhpm-12" edge="1">
          <mxGeometry relative="1" as="geometry" />
        </mxCell>
        <mxCell id="8MR5_gY_EwbowUMmGhpm-65" value="&lt;p style=&quot;margin:0px;margin-top:4px;text-align:center;&quot;&gt;&lt;b&gt;CertificateService&lt;/b&gt;&lt;/p&gt;&lt;hr size=&quot;1&quot;&gt;&lt;p style=&quot;border-color: var(--border-color); margin: 0px 0px 0px 4px;&quot;&gt;+ GetById(certificateId): Certificate&lt;br style=&quot;border-color: var(--border-color);&quot;&gt;+ Create(userId, courseId): Certificate&lt;/p&gt;&lt;p style=&quot;border-color: var(--border-color); margin: 0px 0px 0px 4px;&quot;&gt;+ GetByCourseStudent(userId, courseId): Certificate&lt;/p&gt;" style="verticalAlign=top;align=left;overflow=fill;fontSize=12;fontFamily=Helvetica;html=1;whiteSpace=wrap;strokeWidth=2;fillColor=#ffe6cc;strokeColor=#d79b00;" parent="1" vertex="1">
          <mxGeometry x="1060" y="613" width="220" height="120" as="geometry" />
        </mxCell>
        <mxCell id="_JWCpH6sBBp4K9ZSyjIy-19" style="edgeStyle=orthogonalEdgeStyle;rounded=0;orthogonalLoop=1;jettySize=auto;html=1;exitX=0.25;exitY=1;exitDx=0;exitDy=0;strokeWidth=2;" edge="1" parent="1" source="8MR5_gY_EwbowUMmGhpm-69" target="_JWCpH6sBBp4K9ZSyjIy-8">
          <mxGeometry relative="1" as="geometry">
            <Array as="points">
              <mxPoint x="1348" y="1140" />
              <mxPoint x="280" y="1140" />
              <mxPoint x="280" y="1179" />
            </Array>
          </mxGeometry>
        </mxCell>
        <mxCell id="8MR5_gY_EwbowUMmGhpm-69" value="&lt;p style=&quot;margin:0px;margin-top:4px;text-align:center;&quot;&gt;&lt;i&gt;&amp;lt;&amp;lt;Interface&amp;gt;&amp;gt;&lt;/i&gt;&lt;br&gt;&lt;b&gt;IReviewRepository&lt;/b&gt;&lt;/p&gt;&lt;hr size=&quot;1&quot;&gt;&lt;p style=&quot;border-color: var(--border-color); margin: 0px 0px 0px 4px;&quot;&gt;+ Create(Review): Review&lt;/p&gt;&lt;p style=&quot;border-color: var(--border-color); margin: 0px 0px 0px 4px;&quot;&gt;+ Delete(reviewId)&lt;/p&gt;&lt;p style=&quot;border-color: var(--border-color); margin: 0px 0px 0px 4px;&quot;&gt;+ GetUserReviews(userId): Review[]&lt;/p&gt;&lt;p style=&quot;border-color: var(--border-color); margin: 0px 0px 0px 4px;&quot;&gt;+ GetById(reviewId): Review&lt;/p&gt;&lt;p style=&quot;border-color: var(--border-color); margin: 0px 0px 0px 4px;&quot;&gt;+ GetCourseReviews(courseId): Review[]&lt;/p&gt;" style="verticalAlign=top;align=left;overflow=fill;fontSize=12;fontFamily=Helvetica;html=1;whiteSpace=wrap;strokeWidth=2;fillColor=#e1d5e7;strokeColor=#9673a6;" parent="1" vertex="1">
          <mxGeometry x="1290" y="903" width="230" height="130" as="geometry" />
        </mxCell>
        <mxCell id="8MR5_gY_EwbowUMmGhpm-70" style="edgeStyle=orthogonalEdgeStyle;rounded=0;orthogonalLoop=1;jettySize=auto;html=1;exitX=0.5;exitY=0;exitDx=0;exitDy=0;entryX=0.5;entryY=1;entryDx=0;entryDy=0;fillColor=#e1d5e7;strokeColor=#9673a6;strokeWidth=2;" parent="1" source="8MR5_gY_EwbowUMmGhpm-71" target="8MR5_gY_EwbowUMmGhpm-69" edge="1">
          <mxGeometry relative="1" as="geometry" />
        </mxCell>
        <mxCell id="8MR5_gY_EwbowUMmGhpm-71" value="&lt;p style=&quot;margin:0px;margin-top:4px;text-align:center;&quot;&gt;&lt;b&gt;ReviewPostgresRepository&lt;/b&gt;&lt;/p&gt;&lt;hr size=&quot;1&quot;&gt;&lt;p style=&quot;border-color: var(--border-color); margin: 0px 0px 0px 4px;&quot;&gt;+ Create(Review): Review&lt;/p&gt;&lt;p style=&quot;border-color: var(--border-color); margin: 0px 0px 0px 4px;&quot;&gt;+ Delete(reviewId)&lt;/p&gt;&lt;p style=&quot;border-color: var(--border-color); margin: 0px 0px 0px 4px;&quot;&gt;+ GetUserReviews(userId): Review[]&lt;/p&gt;&lt;p style=&quot;border-color: var(--border-color); margin: 0px 0px 0px 4px;&quot;&gt;+ GetById(reviewId): Review&lt;/p&gt;&lt;p style=&quot;border-color: var(--border-color); margin: 0px 0px 0px 4px;&quot;&gt;+ GetCourseReviews(courseId): Review[]&lt;/p&gt;" style="verticalAlign=top;align=left;overflow=fill;fontSize=12;fontFamily=Helvetica;html=1;whiteSpace=wrap;strokeWidth=2;fillColor=#e1d5e7;strokeColor=#9673a6;" parent="1" vertex="1">
          <mxGeometry x="1290" y="1183" width="230" height="110" as="geometry" />
        </mxCell>
        <mxCell id="8MR5_gY_EwbowUMmGhpm-100" style="edgeStyle=orthogonalEdgeStyle;rounded=0;orthogonalLoop=1;jettySize=auto;html=1;exitX=0.25;exitY=0;exitDx=0;exitDy=0;endArrow=none;endFill=0;dashed=1;strokeWidth=2;" parent="1" source="8MR5_gY_EwbowUMmGhpm-72" edge="1">
          <mxGeometry relative="1" as="geometry">
            <mxPoint x="1050" y="333" as="targetPoint" />
          </mxGeometry>
        </mxCell>
        <mxCell id="8MR5_gY_EwbowUMmGhpm-102" style="edgeStyle=orthogonalEdgeStyle;rounded=0;orthogonalLoop=1;jettySize=auto;html=1;exitX=0.5;exitY=0;exitDx=0;exitDy=0;entryX=0.5;entryY=1;entryDx=0;entryDy=0;dashed=1;strokeWidth=2;" parent="1" source="8MR5_gY_EwbowUMmGhpm-72" target="8MR5_gY_EwbowUMmGhpm-90" edge="1">
          <mxGeometry relative="1" as="geometry" />
        </mxCell>
        <mxCell id="8MR5_gY_EwbowUMmGhpm-72" value="&lt;p style=&quot;margin:0px;margin-top:4px;text-align:center;&quot;&gt;&lt;i&gt;&amp;lt;&amp;lt;Interface&amp;gt;&amp;gt;&lt;/i&gt;&lt;br&gt;&lt;b&gt;IReviewService&lt;/b&gt;&lt;/p&gt;&lt;hr size=&quot;1&quot;&gt;&lt;p style=&quot;margin:0px;margin-left:4px;&quot;&gt;+ Create(Review): Review&lt;/p&gt;&lt;p style=&quot;margin:0px;margin-left:4px;&quot;&gt;+ Delete(reviewId)&lt;/p&gt;&lt;p style=&quot;margin:0px;margin-left:4px;&quot;&gt;+ GetUserReviews(userId): Review[]&lt;/p&gt;&lt;p style=&quot;margin:0px;margin-left:4px;&quot;&gt;+ GetById(reviewId): Review&lt;/p&gt;&lt;p style=&quot;margin:0px;margin-left:4px;&quot;&gt;+ GetCourseReviews(courseId): Review[]&lt;/p&gt;" style="verticalAlign=top;align=left;overflow=fill;fontSize=12;fontFamily=Helvetica;html=1;whiteSpace=wrap;strokeWidth=2;fillColor=#ffe6cc;strokeColor=#d79b00;" parent="1" vertex="1">
          <mxGeometry x="1290" y="393" width="230" height="140" as="geometry" />
        </mxCell>
        <mxCell id="8MR5_gY_EwbowUMmGhpm-109" style="edgeStyle=orthogonalEdgeStyle;rounded=0;orthogonalLoop=1;jettySize=auto;html=1;exitX=0.5;exitY=0;exitDx=0;exitDy=0;entryX=0.5;entryY=1;entryDx=0;entryDy=0;strokeWidth=2;" parent="1" source="8MR5_gY_EwbowUMmGhpm-75" target="8MR5_gY_EwbowUMmGhpm-72" edge="1">
          <mxGeometry relative="1" as="geometry" />
        </mxCell>
        <mxCell id="8MR5_gY_EwbowUMmGhpm-114" style="edgeStyle=orthogonalEdgeStyle;rounded=0;orthogonalLoop=1;jettySize=auto;html=1;exitX=0.5;exitY=1;exitDx=0;exitDy=0;entryX=0.5;entryY=0;entryDx=0;entryDy=0;strokeWidth=2;endArrow=classic;endFill=1;startArrow=none;startFill=0;" parent="1" source="8MR5_gY_EwbowUMmGhpm-75" target="8MR5_gY_EwbowUMmGhpm-69" edge="1">
          <mxGeometry relative="1" as="geometry" />
        </mxCell>
        <mxCell id="8MR5_gY_EwbowUMmGhpm-120" style="edgeStyle=orthogonalEdgeStyle;rounded=0;orthogonalLoop=1;jettySize=auto;html=1;exitX=0.25;exitY=1;exitDx=0;exitDy=0;entryX=0.75;entryY=0;entryDx=0;entryDy=0;fillColor=#d5e8d4;strokeColor=#82b366;strokeWidth=2;endArrow=classic;endFill=1;startArrow=none;startFill=0;" parent="1" source="8MR5_gY_EwbowUMmGhpm-75" target="8MR5_gY_EwbowUMmGhpm-12" edge="1">
          <mxGeometry relative="1" as="geometry" />
        </mxCell>
        <mxCell id="8MR5_gY_EwbowUMmGhpm-75" value="&lt;p style=&quot;margin:0px;margin-top:4px;text-align:center;&quot;&gt;&lt;b&gt;ReviewService&lt;/b&gt;&lt;/p&gt;&lt;hr size=&quot;1&quot;&gt;&lt;p style=&quot;border-color: var(--border-color); margin: 0px 0px 0px 4px;&quot;&gt;+ Create(Review): Review&lt;/p&gt;&lt;p style=&quot;border-color: var(--border-color); margin: 0px 0px 0px 4px;&quot;&gt;+ Delete(reviewId)&lt;/p&gt;&lt;p style=&quot;border-color: var(--border-color); margin: 0px 0px 0px 4px;&quot;&gt;+ GetUserReviews(userId): Review[]&lt;/p&gt;&lt;p style=&quot;border-color: var(--border-color); margin: 0px 0px 0px 4px;&quot;&gt;+ GetById(reviewId): Review&lt;/p&gt;&lt;p style=&quot;border-color: var(--border-color); margin: 0px 0px 0px 4px;&quot;&gt;+ GetCourseReviews(courseId): Review[]&lt;/p&gt;" style="verticalAlign=top;align=left;overflow=fill;fontSize=12;fontFamily=Helvetica;html=1;whiteSpace=wrap;strokeWidth=2;fillColor=#ffe6cc;strokeColor=#d79b00;" parent="1" vertex="1">
          <mxGeometry x="1290" y="613" width="230" height="120" as="geometry" />
        </mxCell>
        <mxCell id="8MR5_gY_EwbowUMmGhpm-83" value="&lt;p style=&quot;margin:0px;margin-top:4px;text-align:center;&quot;&gt;&lt;b&gt;User&lt;/b&gt;&lt;/p&gt;&lt;hr size=&quot;1&quot;&gt;&lt;p style=&quot;border-color: var(--border-color); margin: 0px 0px 0px 4px;&quot;&gt;+ id: int64&lt;br style=&quot;border-color: var(--border-color);&quot;&gt;+ name: string&lt;/p&gt;&lt;p style=&quot;border-color: var(--border-color); margin: 0px 0px 0px 4px;&quot;&gt;+ surname: string&lt;/p&gt;&lt;p style=&quot;border-color: var(--border-color); margin: 0px 0px 0px 4px;&quot;&gt;+ email: string&lt;/p&gt;&lt;p style=&quot;border-color: var(--border-color); margin: 0px 0px 0px 4px;&quot;&gt;+ password: string&lt;/p&gt;&lt;p style=&quot;border-color: var(--border-color); margin: 0px 0px 0px 4px;&quot;&gt;+ avatar_url: string&lt;/p&gt;&lt;p style=&quot;border-color: var(--border-color); margin: 0px 0px 0px 4px;&quot;&gt;+ phone: string&lt;/p&gt;" style="verticalAlign=top;align=left;overflow=fill;fontSize=12;fontFamily=Helvetica;html=1;whiteSpace=wrap;strokeWidth=2;fillColor=#ffe6cc;strokeColor=#d79b00;" parent="1" vertex="1">
          <mxGeometry x="372.5" y="192" width="135" height="140" as="geometry" />
        </mxCell>
        <mxCell id="8MR5_gY_EwbowUMmGhpm-85" value="&lt;p style=&quot;margin:0px;margin-top:4px;text-align:center;&quot;&gt;&lt;b&gt;Course&lt;/b&gt;&lt;/p&gt;&lt;hr size=&quot;1&quot;&gt;&lt;p style=&quot;border-color: var(--border-color); margin: 0px 0px 0px 4px;&quot;&gt;+ id: int64&lt;br style=&quot;border-color: var(--border-color);&quot;&gt;+ name: string&lt;/p&gt;&lt;p style=&quot;border-color: var(--border-color); margin: 0px 0px 0px 4px;&quot;&gt;+ level: int&lt;/p&gt;&lt;p style=&quot;border-color: var(--border-color); margin: 0px 0px 0px 4px;&quot;&gt;+ price: int64&lt;/p&gt;&lt;p style=&quot;border-color: var(--border-color); margin: 0px 0px 0px 4px;&quot;&gt;+ language: string&lt;/p&gt;&lt;p style=&quot;border-color: var(--border-color); margin: 0px 0px 0px 4px;&quot;&gt;+ status: enum&lt;/p&gt;&lt;p style=&quot;border-color: var(--border-color); margin: 0px 0px 0px 4px;&quot;&gt;+ lessons: Lesson[]&lt;/p&gt;&lt;p style=&quot;border-color: var(--border-color); margin: 0px 0px 0px 4px;&quot;&gt;+ school: School&lt;/p&gt;&lt;p style=&quot;border-color: var(--border-color); margin: 0px 0px 0px 4px;&quot;&gt;+ teachers: User[]&lt;/p&gt;" style="verticalAlign=top;align=left;overflow=fill;fontSize=12;fontFamily=Helvetica;html=1;whiteSpace=wrap;strokeWidth=2;fillColor=#ffe6cc;strokeColor=#d79b00;" parent="1" vertex="1">
          <mxGeometry x="535" y="162" width="135" height="170" as="geometry" />
        </mxCell>
        <mxCell id="8MR5_gY_EwbowUMmGhpm-87" value="&lt;p style=&quot;margin:0px;margin-top:4px;text-align:center;&quot;&gt;&lt;b&gt;School&lt;/b&gt;&lt;/p&gt;&lt;hr size=&quot;1&quot;&gt;&lt;p style=&quot;border-color: var(--border-color); margin: 0px 0px 0px 4px;&quot;&gt;+ id: int64&lt;br style=&quot;border-color: var(--border-color);&quot;&gt;+ name: string&lt;/p&gt;&lt;p style=&quot;border-color: var(--border-color); margin: 0px 0px 0px 4px;&quot;&gt;+ description: string&lt;/p&gt;&lt;p style=&quot;border-color: var(--border-color); margin: 0px 0px 0px 4px;&quot;&gt;+ owner: User&lt;/p&gt;&lt;p style=&quot;border-color: var(--border-color); margin: 0px 0px 0px 4px;&quot;&gt;+ paymentInfo: string&lt;/p&gt;" style="verticalAlign=top;align=left;overflow=fill;fontSize=12;fontFamily=Helvetica;html=1;whiteSpace=wrap;strokeWidth=2;fillColor=#ffe6cc;strokeColor=#d79b00;" parent="1" vertex="1">
          <mxGeometry x="857.5" y="212" width="135" height="120" as="geometry" />
        </mxCell>
        <mxCell id="8MR5_gY_EwbowUMmGhpm-88" value="&lt;p style=&quot;margin:0px;margin-top:4px;text-align:center;&quot;&gt;&lt;b&gt;Certificate&lt;/b&gt;&lt;/p&gt;&lt;hr size=&quot;1&quot;&gt;&lt;p style=&quot;border-color: var(--border-color); margin: 0px 0px 0px 4px;&quot;&gt;+ id: int64&lt;br style=&quot;border-color: var(--border-color);&quot;&gt;+ name: string&lt;/p&gt;&lt;p style=&quot;border-color: var(--border-color); margin: 0px 0px 0px 4px;&quot;&gt;+ date: date&lt;/p&gt;&lt;p style=&quot;border-color: var(--border-color); margin: 0px 0px 0px 4px;&quot;&gt;+ grade: string&lt;/p&gt;&lt;p style=&quot;border-color: var(--border-color); margin: 0px 0px 0px 4px;&quot;&gt;+ total: int&lt;/p&gt;&lt;p style=&quot;border-color: var(--border-color); margin: 0px 0px 0px 4px;&quot;&gt;+ course: Course&lt;span style=&quot;background-color: initial;&quot;&gt;&amp;nbsp;&lt;/span&gt;&lt;/p&gt;" style="verticalAlign=top;align=left;overflow=fill;fontSize=12;fontFamily=Helvetica;html=1;whiteSpace=wrap;strokeWidth=2;fillColor=#ffe6cc;strokeColor=#d79b00;" parent="1" vertex="1">
          <mxGeometry x="1102.5" y="202" width="135" height="130" as="geometry" />
        </mxCell>
        <mxCell id="8MR5_gY_EwbowUMmGhpm-89" value="&lt;p style=&quot;margin:0px;margin-top:4px;text-align:center;&quot;&gt;&lt;b&gt;Lesson&lt;/b&gt;&lt;/p&gt;&lt;hr size=&quot;1&quot;&gt;&lt;p style=&quot;border-color: var(--border-color); margin: 0px 0px 0px 4px;&quot;&gt;+ id: int64&lt;br style=&quot;border-color: var(--border-color);&quot;&gt;+ title: string&lt;/p&gt;&lt;p style=&quot;border-color: var(--border-color); margin: 0px 0px 0px 4px;&quot;&gt;+ estimatedTime: time&lt;/p&gt;&lt;p style=&quot;border-color: var(--border-color); margin: 0px 0px 0px 4px;&quot;&gt;&lt;span style=&quot;background-color: initial;&quot;&gt;+ contentUrl: string&lt;/span&gt;&lt;/p&gt;&lt;p style=&quot;border-color: var(--border-color); margin: 0px 0px 0px 4px;&quot;&gt;&lt;span style=&quot;background-color: initial;&quot;&gt;+ type: enum&amp;nbsp;&lt;/span&gt;&lt;/p&gt;" style="verticalAlign=top;align=left;overflow=fill;fontSize=12;fontFamily=Helvetica;html=1;whiteSpace=wrap;strokeWidth=2;fillColor=#ffe6cc;strokeColor=#d79b00;" parent="1" vertex="1">
          <mxGeometry x="680" y="222" width="135" height="110" as="geometry" />
        </mxCell>
        <mxCell id="8MR5_gY_EwbowUMmGhpm-90" value="&lt;p style=&quot;margin:0px;margin-top:4px;text-align:center;&quot;&gt;&lt;b&gt;Review&lt;/b&gt;&lt;/p&gt;&lt;hr size=&quot;1&quot;&gt;&lt;p style=&quot;border-color: var(--border-color); margin: 0px 0px 0px 4px;&quot;&gt;+ id: int64&lt;br style=&quot;border-color: var(--border-color);&quot;&gt;+ courseId: int64&lt;/p&gt;&lt;p style=&quot;border-color: var(--border-color); margin: 0px 0px 0px 4px;&quot;&gt;+ userId: int64&lt;/p&gt;&lt;p style=&quot;border-color: var(--border-color); margin: 0px 0px 0px 4px;&quot;&gt;+ text: string&lt;/p&gt;&lt;p style=&quot;border-color: var(--border-color); margin: 0px 0px 0px 4px;&quot;&gt;+ rating: int&lt;/p&gt;" style="verticalAlign=top;align=left;overflow=fill;fontSize=12;fontFamily=Helvetica;html=1;whiteSpace=wrap;strokeWidth=2;fillColor=#ffe6cc;strokeColor=#d79b00;" parent="1" vertex="1">
          <mxGeometry x="1290" y="202" width="135" height="120" as="geometry" />
        </mxCell>
        <mxCell id="8MR5_gY_EwbowUMmGhpm-124" value="Адаптеры репозиториев" style="rounded=0;whiteSpace=wrap;html=1;strokeWidth=2;" parent="1" vertex="1">
          <mxGeometry x="1450" y="1353" width="120" height="60" as="geometry" />
        </mxCell>
        <mxCell id="_JWCpH6sBBp4K9ZSyjIy-3" value="&lt;p style=&quot;margin:0px;margin-top:4px;text-align:center;&quot;&gt;&lt;b&gt;User&lt;/b&gt;&lt;/p&gt;&lt;p style=&quot;border-color: var(--border-color); margin: 0px 0px 0px 4px;&quot;&gt;&lt;br&gt;&lt;/p&gt;" style="verticalAlign=top;align=left;overflow=fill;fontSize=12;fontFamily=Helvetica;html=1;whiteSpace=wrap;strokeWidth=2;fillColor=#ffe6cc;strokeColor=#d79b00;" vertex="1" parent="1">
          <mxGeometry x="80" y="873" width="180" height="37" as="geometry" />
        </mxCell>
        <mxCell id="_JWCpH6sBBp4K9ZSyjIy-4" value="&lt;p style=&quot;margin:0px;margin-top:4px;text-align:center;&quot;&gt;&lt;b&gt;Course&lt;/b&gt;&lt;/p&gt;" style="verticalAlign=top;align=left;overflow=fill;fontSize=12;fontFamily=Helvetica;html=1;whiteSpace=wrap;strokeWidth=2;fillColor=#ffe6cc;strokeColor=#d79b00;" vertex="1" parent="1">
          <mxGeometry x="80" y="929" width="180" height="37" as="geometry" />
        </mxCell>
        <mxCell id="_JWCpH6sBBp4K9ZSyjIy-5" value="&lt;p style=&quot;margin:0px;margin-top:4px;text-align:center;&quot;&gt;&lt;b&gt;Lesson&lt;/b&gt;&lt;/p&gt;" style="verticalAlign=top;align=left;overflow=fill;fontSize=12;fontFamily=Helvetica;html=1;whiteSpace=wrap;strokeWidth=2;fillColor=#ffe6cc;strokeColor=#d79b00;" vertex="1" parent="1">
          <mxGeometry x="80" y="984" width="180" height="37" as="geometry" />
        </mxCell>
        <mxCell id="_JWCpH6sBBp4K9ZSyjIy-6" value="&lt;p style=&quot;margin:0px;margin-top:4px;text-align:center;&quot;&gt;&lt;b&gt;School&lt;/b&gt;&lt;/p&gt;" style="verticalAlign=top;align=left;overflow=fill;fontSize=12;fontFamily=Helvetica;html=1;whiteSpace=wrap;strokeWidth=2;fillColor=#ffe6cc;strokeColor=#d79b00;" vertex="1" parent="1">
          <mxGeometry x="80" y="1040" width="180" height="37" as="geometry" />
        </mxCell>
        <mxCell id="_JWCpH6sBBp4K9ZSyjIy-7" value="&lt;p style=&quot;margin:0px;margin-top:4px;text-align:center;&quot;&gt;&lt;b&gt;Certificate&lt;/b&gt;&lt;/p&gt;" style="verticalAlign=top;align=left;overflow=fill;fontSize=12;fontFamily=Helvetica;html=1;whiteSpace=wrap;strokeWidth=2;fillColor=#ffe6cc;strokeColor=#d79b00;" vertex="1" parent="1">
          <mxGeometry x="80" y="1098" width="180" height="37" as="geometry" />
        </mxCell>
        <mxCell id="_JWCpH6sBBp4K9ZSyjIy-8" value="&lt;p style=&quot;margin:0px;margin-top:4px;text-align:center;&quot;&gt;&lt;b&gt;Review&lt;/b&gt;&lt;/p&gt;" style="verticalAlign=top;align=left;overflow=fill;fontSize=12;fontFamily=Helvetica;html=1;whiteSpace=wrap;strokeWidth=2;fillColor=#ffe6cc;strokeColor=#d79b00;" vertex="1" parent="1">
          <mxGeometry x="80" y="1160" width="180" height="37" as="geometry" />
        </mxCell>
        <mxCell id="_JWCpH6sBBp4K9ZSyjIy-14" value="Бизнес&amp;nbsp;&lt;br&gt;Сущности" style="rounded=0;whiteSpace=wrap;html=1;strokeWidth=2;" vertex="1" parent="1">
          <mxGeometry x="2070" y="290" width="120" height="60" as="geometry" />
        </mxCell>
        <mxCell id="_JWCpH6sBBp4K9ZSyjIy-15" value="Бизнес&amp;nbsp;&lt;br&gt;Сущности" style="rounded=0;whiteSpace=wrap;html=1;strokeWidth=2;" vertex="1" parent="1">
          <mxGeometry x="30" y="1351" width="120" height="60" as="geometry" />
        </mxCell>
        <mxCell id="_JWCpH6sBBp4K9ZSyjIy-20" value="" style="rounded=0;whiteSpace=wrap;html=1;strokeWidth=2;fillColor=#dae8fc;strokeColor=#6c8ebf;" vertex="1" parent="1">
          <mxGeometry x="1570" y="863" width="310" height="297" as="geometry" />
        </mxCell>
        <mxCell id="8MR5_gY_EwbowUMmGhpm-125" value="Порты&lt;br&gt;&amp;nbsp;репозиториев" style="rounded=0;whiteSpace=wrap;html=1;strokeWidth=2;" parent="1" vertex="1">
          <mxGeometry x="1450" y="1100" width="120" height="60" as="geometry" />
        </mxCell>
        <mxCell id="_JWCpH6sBBp4K9ZSyjIy-22" value="" style="rounded=0;whiteSpace=wrap;html=1;strokeWidth=2;fillColor=#dae8fc;strokeColor=#6c8ebf;" vertex="1" parent="1">
          <mxGeometry x="1880" y="863" width="310" height="297" as="geometry" />
        </mxCell>
        <mxCell id="_JWCpH6sBBp4K9ZSyjIy-23" value="Порт &lt;br&gt;Платежного шлюза" style="rounded=0;whiteSpace=wrap;html=1;strokeWidth=2;" vertex="1" parent="1">
          <mxGeometry x="2070" y="1100" width="120" height="60" as="geometry" />
        </mxCell>
        <mxCell id="_JWCpH6sBBp4K9ZSyjIy-21" value="Порт&lt;br&gt;Объектного хранилища" style="rounded=0;whiteSpace=wrap;html=1;strokeWidth=2;" vertex="1" parent="1">
          <mxGeometry x="1760" y="1100" width="120" height="60" as="geometry" />
        </mxCell>
        <mxCell id="8MR5_gY_EwbowUMmGhpm-126" value="Бизнес&amp;nbsp;&lt;br&gt;Логика" style="rounded=0;whiteSpace=wrap;html=1;strokeWidth=2;" parent="1" vertex="1">
          <mxGeometry x="2070" y="803" width="120" height="60" as="geometry" />
        </mxCell>
        <mxCell id="_JWCpH6sBBp4K9ZSyjIy-24" value="" style="rounded=0;whiteSpace=wrap;html=1;strokeWidth=2;fillColor=#E0E0E0;strokeColor=#666666;fontColor=#333333;" vertex="1" parent="1">
          <mxGeometry x="1570" y="1160" width="310" height="253" as="geometry" />
        </mxCell>
        <mxCell id="_JWCpH6sBBp4K9ZSyjIy-25" value="" style="rounded=0;whiteSpace=wrap;html=1;strokeWidth=2;fillColor=#E0E0E0;strokeColor=#666666;fontColor=#333333;" vertex="1" parent="1">
          <mxGeometry x="1880" y="1160" width="310" height="253" as="geometry" />
        </mxCell>
        <mxCell id="_JWCpH6sBBp4K9ZSyjIy-26" value="Адаптер &lt;br&gt;Объектного хранилища" style="rounded=0;whiteSpace=wrap;html=1;strokeWidth=2;" vertex="1" parent="1">
          <mxGeometry x="1760" y="1353" width="120" height="60" as="geometry" />
        </mxCell>
        <mxCell id="_JWCpH6sBBp4K9ZSyjIy-27" value="Адаптер&lt;br&gt;Платежного шлюза" style="rounded=0;whiteSpace=wrap;html=1;strokeWidth=2;" vertex="1" parent="1">
          <mxGeometry x="2070" y="1353" width="120" height="60" as="geometry" />
        </mxCell>
        <mxCell id="_JWCpH6sBBp4K9ZSyjIy-35" style="edgeStyle=orthogonalEdgeStyle;rounded=0;orthogonalLoop=1;jettySize=auto;html=1;exitX=0.5;exitY=0;exitDx=0;exitDy=0;entryX=0.5;entryY=1;entryDx=0;entryDy=0;strokeWidth=2;" edge="1" parent="1" source="_JWCpH6sBBp4K9ZSyjIy-28" target="_JWCpH6sBBp4K9ZSyjIy-33">
          <mxGeometry relative="1" as="geometry" />
        </mxCell>
        <mxCell id="_JWCpH6sBBp4K9ZSyjIy-44" style="edgeStyle=orthogonalEdgeStyle;rounded=0;orthogonalLoop=1;jettySize=auto;html=1;exitX=0.5;exitY=1;exitDx=0;exitDy=0;entryX=0.5;entryY=0;entryDx=0;entryDy=0;strokeWidth=2;" edge="1" parent="1" source="_JWCpH6sBBp4K9ZSyjIy-28" target="_JWCpH6sBBp4K9ZSyjIy-40">
          <mxGeometry relative="1" as="geometry" />
        </mxCell>
        <mxCell id="_JWCpH6sBBp4K9ZSyjIy-47" style="edgeStyle=orthogonalEdgeStyle;rounded=0;orthogonalLoop=1;jettySize=auto;html=1;exitX=0.25;exitY=1;exitDx=0;exitDy=0;entryX=0.75;entryY=0;entryDx=0;entryDy=0;fillColor=#d5e8d4;strokeColor=#82b366;strokeWidth=2;" edge="1" parent="1" source="_JWCpH6sBBp4K9ZSyjIy-28" target="8MR5_gY_EwbowUMmGhpm-12">
          <mxGeometry relative="1" as="geometry">
            <Array as="points">
              <mxPoint x="1978" y="830" />
              <mxPoint x="498" y="830" />
            </Array>
          </mxGeometry>
        </mxCell>
        <mxCell id="_JWCpH6sBBp4K9ZSyjIy-28" value="&lt;p style=&quot;margin:0px;margin-top:4px;text-align:center;&quot;&gt;&lt;b&gt;PaymentService&lt;/b&gt;&lt;/p&gt;&lt;hr size=&quot;1&quot;&gt;&lt;p style=&quot;border-color: var(--border-color); margin: 0px 0px 0px 4px;&quot;&gt;+ ProcessCoursePayment(User, Course)&lt;br&gt;&lt;/p&gt;" style="verticalAlign=top;align=left;overflow=fill;fontSize=12;fontFamily=Helvetica;html=1;whiteSpace=wrap;strokeWidth=2;fillColor=#ffe6cc;strokeColor=#d79b00;" vertex="1" parent="1">
          <mxGeometry x="1920" y="613" width="230" height="57" as="geometry" />
        </mxCell>
        <mxCell id="_JWCpH6sBBp4K9ZSyjIy-34" style="edgeStyle=orthogonalEdgeStyle;rounded=0;orthogonalLoop=1;jettySize=auto;html=1;exitX=0.5;exitY=0;exitDx=0;exitDy=0;entryX=0.5;entryY=1;entryDx=0;entryDy=0;strokeWidth=2;" edge="1" parent="1" source="_JWCpH6sBBp4K9ZSyjIy-30" target="_JWCpH6sBBp4K9ZSyjIy-32">
          <mxGeometry relative="1" as="geometry" />
        </mxCell>
        <mxCell id="_JWCpH6sBBp4K9ZSyjIy-39" style="edgeStyle=orthogonalEdgeStyle;rounded=0;orthogonalLoop=1;jettySize=auto;html=1;exitX=0.5;exitY=1;exitDx=0;exitDy=0;entryX=0.5;entryY=0;entryDx=0;entryDy=0;strokeWidth=2;" edge="1" parent="1" source="_JWCpH6sBBp4K9ZSyjIy-30" target="_JWCpH6sBBp4K9ZSyjIy-36">
          <mxGeometry relative="1" as="geometry" />
        </mxCell>
        <mxCell id="_JWCpH6sBBp4K9ZSyjIy-30" value="&lt;p style=&quot;margin:0px;margin-top:4px;text-align:center;&quot;&gt;&lt;b&gt;ContentService&lt;/b&gt;&lt;/p&gt;&lt;hr size=&quot;1&quot;&gt;&lt;p style=&quot;border-color: var(--border-color); margin: 0px 0px 0px 4px;&quot;&gt;+ Create(File):&amp;nbsp;&lt;/p&gt;&lt;p style=&quot;border-color: var(--border-color); margin: 0px 0px 0px 4px;&quot;&gt;+ Delete(url)&lt;/p&gt;&lt;p style=&quot;border-color: var(--border-color); margin: 0px 0px 0px 4px;&quot;&gt;+ Update(url, File)&lt;/p&gt;&lt;p style=&quot;border-color: var(--border-color); margin: 0px 0px 0px 4px;&quot;&gt;+ Get(url): File&lt;/p&gt;" style="verticalAlign=top;align=left;overflow=fill;fontSize=12;fontFamily=Helvetica;html=1;whiteSpace=wrap;strokeWidth=2;fillColor=#ffe6cc;strokeColor=#d79b00;" vertex="1" parent="1">
          <mxGeometry x="1610" y="613" width="230" height="97" as="geometry" />
        </mxCell>
        <mxCell id="_JWCpH6sBBp4K9ZSyjIy-32" value="&lt;p style=&quot;margin:0px;margin-top:4px;text-align:center;&quot;&gt;&lt;i&gt;&amp;lt;&amp;lt;Interface&amp;gt;&amp;gt;&lt;/i&gt;&lt;br&gt;&lt;b&gt;IContentService&lt;/b&gt;&lt;/p&gt;&lt;hr size=&quot;1&quot;&gt;&lt;p style=&quot;margin:0px;margin-left:4px;&quot;&gt;+ Create(File): url&lt;/p&gt;&lt;p style=&quot;margin:0px;margin-left:4px;&quot;&gt;&lt;span style=&quot;background-color: initial;&quot;&gt;+ Delete(url)&lt;/span&gt;&lt;/p&gt;&lt;p style=&quot;margin:0px;margin-left:4px;&quot;&gt;+ Update(url, File): url&lt;/p&gt;&lt;p style=&quot;margin:0px;margin-left:4px;&quot;&gt;+ Get(url): File&lt;/p&gt;" style="verticalAlign=top;align=left;overflow=fill;fontSize=12;fontFamily=Helvetica;html=1;whiteSpace=wrap;strokeWidth=2;fillColor=#ffe6cc;strokeColor=#d79b00;" vertex="1" parent="1">
          <mxGeometry x="1610" y="393" width="230" height="117" as="geometry" />
        </mxCell>
        <mxCell id="_JWCpH6sBBp4K9ZSyjIy-45" style="edgeStyle=orthogonalEdgeStyle;rounded=0;orthogonalLoop=1;jettySize=auto;html=1;exitX=0.5;exitY=0;exitDx=0;exitDy=0;entryX=0.5;entryY=0;entryDx=0;entryDy=0;dashed=1;strokeWidth=2;" edge="1" parent="1" source="_JWCpH6sBBp4K9ZSyjIy-33" target="8MR5_gY_EwbowUMmGhpm-83">
          <mxGeometry relative="1" as="geometry">
            <Array as="points">
              <mxPoint x="2035" y="90" />
              <mxPoint x="440" y="90" />
            </Array>
          </mxGeometry>
        </mxCell>
        <mxCell id="_JWCpH6sBBp4K9ZSyjIy-46" style="edgeStyle=orthogonalEdgeStyle;rounded=0;orthogonalLoop=1;jettySize=auto;html=1;exitX=0.25;exitY=0;exitDx=0;exitDy=0;entryX=0.5;entryY=0;entryDx=0;entryDy=0;dashed=1;strokeWidth=2;" edge="1" parent="1" source="_JWCpH6sBBp4K9ZSyjIy-33" target="8MR5_gY_EwbowUMmGhpm-85">
          <mxGeometry relative="1" as="geometry">
            <Array as="points">
              <mxPoint x="1978" y="130" />
              <mxPoint x="602" y="130" />
            </Array>
          </mxGeometry>
        </mxCell>
        <mxCell id="_JWCpH6sBBp4K9ZSyjIy-33" value="&lt;p style=&quot;margin:0px;margin-top:4px;text-align:center;&quot;&gt;&lt;i&gt;&amp;lt;&amp;lt;Interface&amp;gt;&amp;gt;&lt;/i&gt;&lt;br&gt;&lt;b&gt;IPaymentService&lt;/b&gt;&lt;/p&gt;&lt;hr size=&quot;1&quot;&gt;&lt;p style=&quot;margin:0px;margin-left:4px;&quot;&gt;+ ProcessCoursePayment(User, Course)&lt;/p&gt;" style="verticalAlign=top;align=left;overflow=fill;fontSize=12;fontFamily=Helvetica;html=1;whiteSpace=wrap;strokeWidth=2;fillColor=#ffe6cc;strokeColor=#d79b00;" vertex="1" parent="1">
          <mxGeometry x="1920" y="393" width="230" height="77" as="geometry" />
        </mxCell>
        <mxCell id="_JWCpH6sBBp4K9ZSyjIy-36" value="&lt;p style=&quot;margin:0px;margin-top:4px;text-align:center;&quot;&gt;&lt;i&gt;&amp;lt;&amp;lt;Interface&amp;gt;&amp;gt;&lt;/i&gt;&lt;br&gt;&lt;b&gt;IObjectStorage&lt;/b&gt;&lt;/p&gt;&lt;hr size=&quot;1&quot;&gt;&lt;p style=&quot;border-color: var(--border-color); margin: 0px 0px 0px 4px;&quot;&gt;+ Create(File):&amp;nbsp;&lt;/p&gt;&lt;p style=&quot;border-color: var(--border-color); margin: 0px 0px 0px 4px;&quot;&gt;+ Delete(url)&lt;/p&gt;&lt;p style=&quot;border-color: var(--border-color); margin: 0px 0px 0px 4px;&quot;&gt;+ Update(url, File)&lt;/p&gt;&lt;p style=&quot;border-color: var(--border-color); margin: 0px 0px 0px 4px;&quot;&gt;+ Get(url): File&lt;/p&gt;" style="verticalAlign=top;align=left;overflow=fill;fontSize=12;fontFamily=Helvetica;html=1;whiteSpace=wrap;strokeWidth=2;fillColor=#e1d5e7;strokeColor=#9673a6;" vertex="1" parent="1">
          <mxGeometry x="1610" y="903" width="230" height="117" as="geometry" />
        </mxCell>
        <mxCell id="_JWCpH6sBBp4K9ZSyjIy-38" style="edgeStyle=orthogonalEdgeStyle;rounded=0;orthogonalLoop=1;jettySize=auto;html=1;exitX=0.5;exitY=0;exitDx=0;exitDy=0;entryX=0.5;entryY=1;entryDx=0;entryDy=0;fillColor=#e1d5e7;strokeColor=#9673a6;strokeWidth=2;" edge="1" parent="1" source="_JWCpH6sBBp4K9ZSyjIy-37" target="_JWCpH6sBBp4K9ZSyjIy-36">
          <mxGeometry relative="1" as="geometry" />
        </mxCell>
        <mxCell id="_JWCpH6sBBp4K9ZSyjIy-37" value="&lt;p style=&quot;margin:0px;margin-top:4px;text-align:center;&quot;&gt;&lt;b&gt;MinioObjectStorage&lt;/b&gt;&lt;/p&gt;&lt;hr size=&quot;1&quot;&gt;&lt;p style=&quot;border-color: var(--border-color); margin: 0px 0px 0px 4px;&quot;&gt;+ Create(File):&amp;nbsp;&lt;/p&gt;&lt;p style=&quot;border-color: var(--border-color); margin: 0px 0px 0px 4px;&quot;&gt;+ Delete(url)&lt;/p&gt;&lt;p style=&quot;border-color: var(--border-color); margin: 0px 0px 0px 4px;&quot;&gt;+ Update(url, File)&lt;/p&gt;&lt;p style=&quot;border-color: var(--border-color); margin: 0px 0px 0px 4px;&quot;&gt;+ Get(url): File&lt;/p&gt;" style="verticalAlign=top;align=left;overflow=fill;fontSize=12;fontFamily=Helvetica;html=1;whiteSpace=wrap;strokeWidth=2;fillColor=#e1d5e7;strokeColor=#9673a6;" vertex="1" parent="1">
          <mxGeometry x="1610" y="1183" width="230" height="97" as="geometry" />
        </mxCell>
        <mxCell id="_JWCpH6sBBp4K9ZSyjIy-40" value="&lt;p style=&quot;margin:0px;margin-top:4px;text-align:center;&quot;&gt;&lt;i&gt;&amp;lt;&amp;lt;Interface&amp;gt;&amp;gt;&lt;/i&gt;&lt;br&gt;&lt;b&gt;IPaymentGateway&lt;/b&gt;&lt;/p&gt;&lt;hr size=&quot;1&quot;&gt;&lt;p style=&quot;border-color: var(--border-color); margin: 0px 0px 0px 4px;&quot;&gt;+ ProcessPayment(id, price)&lt;br&gt;&lt;/p&gt;" style="verticalAlign=top;align=left;overflow=fill;fontSize=12;fontFamily=Helvetica;html=1;whiteSpace=wrap;strokeWidth=2;fillColor=#e1d5e7;strokeColor=#9673a6;" vertex="1" parent="1">
          <mxGeometry x="1920" y="903" width="230" height="77" as="geometry" />
        </mxCell>
        <mxCell id="_JWCpH6sBBp4K9ZSyjIy-43" style="edgeStyle=orthogonalEdgeStyle;rounded=0;orthogonalLoop=1;jettySize=auto;html=1;exitX=0.5;exitY=0;exitDx=0;exitDy=0;entryX=0.5;entryY=1;entryDx=0;entryDy=0;fillColor=#e1d5e7;strokeColor=#9673a6;strokeWidth=2;" edge="1" parent="1" source="_JWCpH6sBBp4K9ZSyjIy-42" target="_JWCpH6sBBp4K9ZSyjIy-40">
          <mxGeometry relative="1" as="geometry" />
        </mxCell>
        <mxCell id="_JWCpH6sBBp4K9ZSyjIy-42" value="&lt;p style=&quot;margin:0px;margin-top:4px;text-align:center;&quot;&gt;&lt;b&gt;YoomoneyPaymentGateway&lt;/b&gt;&lt;/p&gt;&lt;hr size=&quot;1&quot;&gt;&lt;p style=&quot;border-color: var(--border-color); margin: 0px 0px 0px 4px;&quot;&gt;+ ProcessPayment(id, price)&lt;br&gt;&lt;/p&gt;" style="verticalAlign=top;align=left;overflow=fill;fontSize=12;fontFamily=Helvetica;html=1;whiteSpace=wrap;strokeWidth=2;fillColor=#e1d5e7;strokeColor=#9673a6;" vertex="1" parent="1">
          <mxGeometry x="1920" y="1183" width="230" height="67" as="geometry" />
        </mxCell>
      </root>
    </mxGraphModel>
  </diagram>
</mxfile>
